<svg xmlns="http://www.w3.org/2000/svg" viewBox="0 0 30 30"><title>fa-external-link</title><g id="font-awesome"><path d="M23,17.5v5A4.51,4.51,0,0,1,18.5,27H5.5a4.33,4.33,0,0,1-3.18-1.32A4.33,4.33,0,0,1,1,22.5V9.5A4.33,4.33,0,0,1,2.32,6.32,4.33,4.33,0,0,1,5.5,5h11a.48.48,0,0,1,.5.5v1a.48.48,0,0,1-.5.5H5.5a2.41,2.41,0,0,0-1.77.73A2.41,2.41,0,0,0,3,9.5v13a2.4,2.4,0,0,0,.73,1.77A2.41,2.41,0,0,0,5.5,25h13A2.51,2.51,0,0,0,21,22.5v-5a.48.48,0,0,1,.5-.5h1a.48.48,0,0,1,.5.5ZM29,4v8a1,1,0,0,1-1.7.7L24.55,10,14.36,20.14a.49.49,0,0,1-.72,0l-1.78-1.78a.49.49,0,0,1,0-.72L22,7.45,19.3,4.7a1,1,0,0,1,0-1.41A1,1,0,0,1,20,3h8a1,1,0,0,1,1,1Z"/></g></svg>