<svg xmlns="http://www.w3.org/2000/svg" viewBox="0 0 30 30"><title>fa-file-pdf</title><g id="font-awesome"><path d="M27.94,6.94a3.66,3.66,0,0,1,.75,1.19A3.62,3.62,0,0,1,29,9.5v18A1.49,1.49,0,0,1,27.5,29H6.5A1.49,1.49,0,0,1,5,27.5V2.5a1.45,1.45,0,0,1,.44-1.06A1.45,1.45,0,0,1,6.5,1h14a3.62,3.62,0,0,1,1.38.31,3.66,3.66,0,0,1,1.19.75ZM27,27V11H20.5A1.49,1.49,0,0,1,19,9.5V3H7V27Zm-7.93-9.27a11.87,11.87,0,0,0,1.32.88,15.82,15.82,0,0,1,1.84-.11q2.31,0,2.78.77a.75.75,0,0,1,0,.81,0,0,0,0,1,0,0l0,0v0q-.09.59-1.12.59a6.49,6.49,0,0,1-1.81-.31,11.46,11.46,0,0,1-2-.83,28.46,28.46,0,0,0-6.16,1.3Q11.47,25,10.07,25a.91.91,0,0,1-.44-.11l-.38-.19-.09-.08a.64.64,0,0,1-.09-.56,3.39,3.39,0,0,1,.88-1.43A7.59,7.59,0,0,1,12,21.13a.23.23,0,0,1,.36.09.09.09,0,0,1,0,.06q.82-1.33,1.68-3.08a23.77,23.77,0,0,0,1.63-4.09,12.53,12.53,0,0,1-.48-2.49,6,6,0,0,1,.1-2Q15.52,9,16,9h.35a.66.66,0,0,1,.55.23A1.24,1.24,0,0,1,17,10.3a.35.35,0,0,1-.06.13.43.43,0,0,1,0,.13V11a20.43,20.43,0,0,1-.22,3A7.89,7.89,0,0,0,19.07,17.73ZM9.72,23.66a6.9,6.9,0,0,0,2.14-2.47,8.92,8.92,0,0,0-1.37,1.31A5.16,5.16,0,0,0,9.72,23.66Zm4.28-4a22.9,22.9,0,0,1,4.44-1.27l-.2-.15L18,18a8.26,8.26,0,0,1-2-2.75,20.88,20.88,0,0,1-1.3,3.08ZM16,9.28a4.64,4.64,0,0,0,0,2.06c0-.07,0-.3.11-.69t.11-.67a.35.35,0,0,1,.06-.12,0,0,0,0,1,0,0,.11.11,0,0,1,0,0,.9.9,0,0,0-.2-.56,0,0,0,0,1,0,0Zm5-6.16V9h5.88a1.71,1.71,0,0,0-.34-.64L21.64,3.47A1.71,1.71,0,0,0,21,3.13Zm3.09,16.23A3.74,3.74,0,0,0,21.91,19a5.9,5.9,0,0,0,1.94.44l.28,0Z"/></g></svg>