<svg xmlns="http://www.w3.org/2000/svg" viewBox="0 0 30 30"><title>fa-file-word</title><g id="font-awesome"><path d="M27.94,6.94a3.66,3.66,0,0,1,.75,1.19A3.62,3.62,0,0,1,29,9.5v18A1.49,1.49,0,0,1,27.5,29H6.5A1.49,1.49,0,0,1,5,27.5V2.5a1.45,1.45,0,0,1,.44-1.06A1.45,1.45,0,0,1,6.5,1h14a3.62,3.62,0,0,1,1.38.31,3.66,3.66,0,0,1,1.19.75ZM27,27V11H20.5A1.49,1.49,0,0,1,19,9.5V3H7V27ZM8,13v2H9.06l2.48,10h2.91l2.08-7.86A4.41,4.41,0,0,0,16.72,16h.06l0,.39s0,.14.06.32a2.53,2.53,0,0,0,.09.42L19.05,25h2.44L24,15h1V13H20v2h1.43l-1.57,6.94a4.34,4.34,0,0,0-.11.73l0,.33h.52a.82.82,0,0,0,0-.11l0-.13a.53.53,0,0,1,0-.11l-.07-.34c0-.17-.06-.31-.08-.41L17.68,13H15.82l-2.35,8.91c0,.1,0,.23-.07.4l-.06.35-.07.34h.1l0-.33a4.55,4.55,0,0,0-.11-.73L11.66,15H13V13ZM21,3.13V9h5.88a1.71,1.71,0,0,0-.34-.64L21.64,3.47A1.71,1.71,0,0,0,21,3.13Z"/></g></svg>